{"title":"WWE.Monday.Night.Raw.2013.01.28.HDTV.x264-RTW","uid":8079196,"size":1756950305,"categoryP":"video","categoryS":"tv_shows","magnet":"?xt=urn:btih:50399305c778e7867457236726055b3a116861d2&amp;dn=WWE.Monday.Night.Raw.2013.01.28.HDTV.x264-RTW&amp;tr=udp%3A%2F%2Ftracker.openbittorrent.com%3A80&amp;tr=udp%3A%2F%2Fopen.demonii.com%3A1337&amp;tr=udp%3A%2F%2Ftracker.coppersurfer.tk%3A6969&amp;tr=udp%3A%2F%2Fexodus.desync.com%3A6969","seeders":1,"leechers":0,"uploader":"scene4all","files":-1,"time":1359459173,"description":"Format : MPEG-4\nFormat profile : Base Media\nCodec ID : isom\nFile size : 1.64 GiB\nDuration : 2h 24mn\nOverall bit rate : 1 627 Kbps\n\nVideo #1\nFormat : AVC\nFormat/Info : Advanced Video Codec\nFormat profile : &lt;a class=&quot;__cf_email__&quot; href=&quot;/cdn-cgi/l/email-protection&quot; data-cfemail=&quot;c78faea0af878bf4e9f7&quot;&gt;[email&amp;#160;protected]&lt;/a&gt;&lt;script cf-hash='f9e31' type=&quot;text/javascript&quot;&gt;\n/* &lt;![CDATA[ */!function(){try{var t=&quot;currentScript&quot;in document?document.currentScript:function(){for(var t=document.getElementsByTagName(&quot;script&quot;),e=t.length;e--;)if(t[e].getAttribute(&quot;cf-hash&quot;))return t[e]}();if(t&amp;&amp;t.previousSibling){var e,r,n,i,c=t.previousSibling,a=c.getAttribute(&quot;data-cfemail&quot;);if(a){for(e=&quot;&quot;,r=parseInt(a.substr(0,2),16),n=2;a.length-n;n+=2)i=parseInt(a.substr(n,2),16)^r,e+=String.fromCharCode(i);e=document.createTextNode(e),c.parentNode.replaceChild(e,c)}}}catch(u){}}();/* ]]&gt; */&lt;/script&gt;\nFormat settings, CABAC : Yes\nFormat settings, ReFrames : 4 frames\nCodec ID : avc1\nCodec ID/Info : Advanced Video Coding\nDuration : 2h 24mn\nBit rate mode : Variable\nBit rate : 1 461 Kbps\nWidth : 704 pixels\nHeight : 400 pixels\nDisplay aspect ratio : 16/9\nFrame rate mode : Constant\nFrame rate : 25.000 fps\nResolution : 24 bits\nColorimetry : 4:2:0\nScan type : Progressive\nBits/(Pixel*Frame) : 0.207\nStream size : 1.47 GiB (90%)\n\nAudio #2\nFormat : AAC\nFormat/Info : Advanced Audio Codec\nFormat version : Version 4\nFormat profile : LC\nFormat settings, SBR : No\nCodec ID : 40\nDuration : 2h 24mn\nBit rate mode : Variable\nBit rate : 160 Kbps\nChannel(s) : 2 channels\nChannel positions : L R\nSampling rate : 48.0 KHz\nResolution : 16 bits\nStream size : 165 MiB (10%)","torrent":{"xt":"urn:btih:50399305c778e7867457236726055b3a116861d2","amp;dn":"WWE.Monday.Night.Raw.2013.01.28.HDTV.x264-RTW","amp;tr":["udp%3A%2F%2Ftracker.openbittorrent.com%3A80","udp%3A%2F%2Fopen.demonii.com%3A1337","udp%3A%2F%2Ftracker.coppersurfer.tk%3A6969","udp%3A%2F%2Fexodus.desync.com%3A6969"],"infoHash":"50399305c778e7867457236726055b3a116861d2","infoHashBuffer":{"type":"Buffer","data":[80,57,147,5,199,120,231,134,116,87,35,103,38,5,91,58,17,104,97,210]},"announce":[],"urlList":[]}}